<mxfile host="Electron" modified="2024-02-22T10:54:01.747Z" agent="Mozilla/5.0 (X11; Linux x86_64) AppleWebKit/537.36 (KHTML, like Gecko) draw.io/22.1.21 Chrome/120.0.6099.109 Electron/28.1.0 Safari/537.36" etag="iKPifbmEE8NZYNauwCyg" version="22.1.21" type="device">
  <diagram name="StrÃ¡nka-1" id="ewOHrh2bMUzIOLQwtSGh">
    <mxGraphModel dx="662" dy="693" grid="1" gridSize="10" guides="1" tooltips="1" connect="1" arrows="1" fold="1" page="1" pageScale="1" pageWidth="1654" pageHeight="2336" math="1" shadow="0">
      <root>
        <mxCell id="0" />
        <mxCell id="1" parent="0" />
        <mxCell id="qpencJFPLMpscfdZpnWB-9" style="edgeStyle=orthogonalEdgeStyle;rounded=0;orthogonalLoop=1;jettySize=auto;html=1;entryX=0;entryY=0.5;entryDx=0;entryDy=0;strokeWidth=3;" parent="1" source="qpencJFPLMpscfdZpnWB-2" target="qpencJFPLMpscfdZpnWB-3" edge="1">
          <mxGeometry relative="1" as="geometry" />
        </mxCell>
        <mxCell id="qpencJFPLMpscfdZpnWB-2" value="&lt;font style=&quot;font-size: 30px;&quot;&gt;\(f_1\)&lt;/font&gt;" style="ellipse;whiteSpace=wrap;html=1;aspect=fixed;strokeWidth=5;" parent="1" vertex="1">
          <mxGeometry x="560" y="360" width="80" height="80" as="geometry" />
        </mxCell>
        <mxCell id="qpencJFPLMpscfdZpnWB-10" style="edgeStyle=orthogonalEdgeStyle;rounded=0;orthogonalLoop=1;jettySize=auto;html=1;entryX=0;entryY=0.5;entryDx=0;entryDy=0;strokeWidth=3;" parent="1" source="qpencJFPLMpscfdZpnWB-3" target="qpencJFPLMpscfdZpnWB-4" edge="1">
          <mxGeometry relative="1" as="geometry" />
        </mxCell>
        <mxCell id="qpencJFPLMpscfdZpnWB-3" value="&lt;font style=&quot;font-size: 30px;&quot;&gt;\(f_2\)&lt;/font&gt;" style="ellipse;whiteSpace=wrap;html=1;aspect=fixed;strokeWidth=5;" parent="1" vertex="1">
          <mxGeometry x="720" y="360" width="80" height="80" as="geometry" />
        </mxCell>
        <mxCell id="qpencJFPLMpscfdZpnWB-4" value="&lt;font style=&quot;font-size: 30px;&quot;&gt;\(f_n\)&lt;/font&gt;" style="ellipse;whiteSpace=wrap;html=1;aspect=fixed;strokeWidth=5;" parent="1" vertex="1">
          <mxGeometry x="880" y="360" width="80" height="80" as="geometry" />
        </mxCell>
        <mxCell id="qpencJFPLMpscfdZpnWB-8" style="edgeStyle=orthogonalEdgeStyle;rounded=0;orthogonalLoop=1;jettySize=auto;html=1;entryX=0;entryY=0.5;entryDx=0;entryDy=0;strokeWidth=3;" parent="1" target="qpencJFPLMpscfdZpnWB-2" edge="1">
          <mxGeometry relative="1" as="geometry">
            <mxPoint x="510" y="400" as="sourcePoint" />
          </mxGeometry>
        </mxCell>
        <mxCell id="qpencJFPLMpscfdZpnWB-6" value="&lt;font style=&quot;font-size: 30px;&quot;&gt;\(y\)&lt;/font&gt;" style="text;html=1;strokeColor=none;fillColor=none;align=center;verticalAlign=middle;whiteSpace=wrap;rounded=0;strokeWidth=25;fontStyle=1" parent="1" vertex="1">
          <mxGeometry x="1010" y="381" width="60" height="30" as="geometry" />
        </mxCell>
        <mxCell id="qpencJFPLMpscfdZpnWB-11" style="edgeStyle=orthogonalEdgeStyle;rounded=0;orthogonalLoop=1;jettySize=auto;html=1;entryX=0.091;entryY=0.637;entryDx=0;entryDy=0;entryPerimeter=0;strokeWidth=3;" parent="1" source="qpencJFPLMpscfdZpnWB-4" target="qpencJFPLMpscfdZpnWB-6" edge="1">
          <mxGeometry relative="1" as="geometry" />
        </mxCell>
        <mxCell id="qpencJFPLMpscfdZpnWB-12" value="" style="shape=curlyBracket;whiteSpace=wrap;html=1;rounded=1;labelPosition=left;verticalLabelPosition=middle;align=right;verticalAlign=middle;rotation=90;strokeWidth=5;perimeterSpacing=0;" parent="1" vertex="1">
          <mxGeometry x="740" y="137" width="40" height="410" as="geometry" />
        </mxCell>
        <mxCell id="qpencJFPLMpscfdZpnWB-13" value="&lt;font style=&quot;font-size: 30px;&quot;&gt;\(f(x)\)&lt;/font&gt;" style="text;html=1;strokeColor=none;fillColor=none;align=center;verticalAlign=middle;whiteSpace=wrap;rounded=0;strokeWidth=25;fontStyle=1" parent="1" vertex="1">
          <mxGeometry x="730" y="280" width="60" height="30" as="geometry" />
        </mxCell>
        <mxCell id="4E3rrX-12LAw-Cvaq8p3-1" value="&lt;font style=&quot;font-size: 30px;&quot;&gt;\(x\)&lt;/font&gt;" style="text;html=1;strokeColor=none;fillColor=none;align=center;verticalAlign=middle;whiteSpace=wrap;rounded=0;" vertex="1" parent="1">
          <mxGeometry x="470" y="381" width="40" height="30" as="geometry" />
        </mxCell>
      </root>
    </mxGraphModel>
  </diagram>
</mxfile>
